<svg width="25" height="25" viewBox="0 0 25 25" fill="none" xmlns="http://www.w3.org/2000/svg">
<g id="Component 1">
<path id="Vector" d="M12.5049 6.88501C9.39941 6.88501 6.89453 9.38989 6.89453 12.4954C6.89453 15.6008 9.39941 18.1057 12.5049 18.1057C15.6104 18.1057 18.1152 15.6008 18.1152 12.4954C18.1152 9.38989 15.6104 6.88501 12.5049 6.88501ZM12.5049 16.1428C10.498 16.1428 8.85742 14.5071 8.85742 12.4954C8.85742 10.4836 10.4932 8.8479 12.5049 8.8479C14.5166 8.8479 16.1523 10.4836 16.1523 12.4954C16.1523 14.5071 14.5117 16.1428 12.5049 16.1428ZM19.6533 6.65552C19.6533 7.38306 19.0674 7.96411 18.3447 7.96411C17.6172 7.96411 17.0361 7.37817 17.0361 6.65552C17.0361 5.93286 17.6221 5.34692 18.3447 5.34692C19.0674 5.34692 19.6533 5.93286 19.6533 6.65552ZM23.3691 7.98364C23.2861 6.23071 22.8857 4.67798 21.6016 3.39868C20.3223 2.11938 18.7695 1.71899 17.0166 1.6311C15.21 1.52856 9.79492 1.52856 7.98828 1.6311C6.24023 1.71411 4.6875 2.1145 3.40332 3.3938C2.11914 4.6731 1.72363 6.22583 1.63574 7.97876C1.5332 9.7854 1.5332 15.2004 1.63574 17.0071C1.71875 18.76 2.11914 20.3127 3.40332 21.592C4.6875 22.8713 6.23535 23.2717 7.98828 23.3596C9.79492 23.4622 15.21 23.4622 17.0166 23.3596C18.7695 23.2766 20.3223 22.8762 21.6016 21.592C22.8809 20.3127 23.2812 18.76 23.3691 17.0071C23.4717 15.2004 23.4717 9.79028 23.3691 7.98364ZM21.0352 18.9456C20.6543 19.9026 19.917 20.6399 18.9551 21.0256C17.5146 21.5969 14.0967 21.4651 12.5049 21.4651C10.9131 21.4651 7.49023 21.592 6.05469 21.0256C5.09766 20.6448 4.36035 19.9075 3.97461 18.9456C3.40332 17.5051 3.53516 14.0872 3.53516 12.4954C3.53516 10.9036 3.4082 7.48071 3.97461 6.04517C4.35547 5.08813 5.09277 4.35083 6.05469 3.96509C7.49512 3.3938 10.9131 3.52563 12.5049 3.52563C14.0967 3.52563 17.5195 3.39868 18.9551 3.96509C19.9121 4.34595 20.6494 5.08325 21.0352 6.04517C21.6064 7.4856 21.4746 10.9036 21.4746 12.4954C21.4746 14.0872 21.6064 17.51 21.0352 18.9456Z" fill="#F8F8F8"/>
</g>
</svg>
