<svg width="11" height="11" viewBox="0 0 11 11" fill="none" xmlns="http://www.w3.org/2000/svg">
<g id="Component 1" clip-path="url(#clip0_14_1618)">
<path id="Vector" d="M0.115848 8.04732L0.663918 8.59925C0.696393 8.63371 0.735572 8.66117 0.779046 8.67993C0.82252 8.6987 0.869372 8.70838 0.916725 8.70838C0.964077 8.70838 1.01093 8.6987 1.0544 8.67993C1.09788 8.66117 1.13706 8.63371 1.16953 8.59925L5.50006 4.26872L9.83059 8.59925C9.8631 8.63432 9.90251 8.6623 9.94635 8.68144C9.99018 8.70057 10.0375 8.71045 10.0853 8.71045C10.1332 8.71045 10.1805 8.70057 10.2243 8.68144C10.2681 8.6623 10.3075 8.63432 10.3401 8.59925L10.8843 8.04732C10.9187 8.01484 10.9462 7.97566 10.965 7.93219C10.9837 7.88871 10.9934 7.84186 10.9934 7.79451C10.9934 7.74716 10.9837 7.7003 10.965 7.65683C10.9462 7.61336 10.9187 7.57418 10.8843 7.5417L5.75094 2.40837C5.71846 2.37391 5.67928 2.34645 5.63581 2.32768C5.59233 2.30891 5.54548 2.29923 5.49813 2.29923C5.45078 2.29923 5.40392 2.30891 5.36045 2.32768C5.31698 2.34645 5.2778 2.37391 5.24532 2.40837L0.111988 7.5417C0.0781298 7.57413 0.0511856 7.61307 0.0327778 7.65619C0.0143709 7.6993 0.00487995 7.7457 0.00487995 7.79258C0.00487995 7.83946 0.0143709 7.88586 0.0327778 7.92897C0.0511856 7.97209 0.0781298 8.01103 0.111988 8.04346L0.115848 8.04732Z" fill="#666666"/>
</g>
<defs>
<clipPath id="clip0_14_1618">
<rect width="11" height="11" fill="white" transform="matrix(-1 0 0 -1 11 11)"/>
</clipPath>
</defs>
</svg>
